<svg width="2383" height="1274" viewBox="0 0 2383 1274" fill="none" xmlns="http://www.w3.org/2000/svg">
<rect width="2383" height="1274" fill="#0000FF"/>
<path d="M925.1 500.2C920.9 500.2 917.5 501.3 914.9 503.5C912.5 505.5 911.3 508.3 911.3 511.9C911.3 516.7 913.5 521.1 917.9 525.1C922.3 529.1 930.1 534.4 941.3 541L958.7 551.2C976.5 561.6 985.4 575.2 985.4 592C985.4 605.8 980.4 617.4 970.4 626.8C960.4 636 948.3 640.6 934.1 640.6C921.9 640.6 910.9 637.4 901.1 631C891.3 624.4 883.8 616.1 878.6 606.1L905 584.8C918.4 611.2 932.6 624.4 947.6 624.4C951.8 624.4 955.2 623.2 957.8 620.8C960.6 618.4 962 615 962 610.6C962 605.8 960.3 601.5 956.9 597.7C953.5 593.7 947.7 589.4 939.5 584.8L914.9 571C908.1 567 902.8 563.5 899 560.5C895.2 557.5 891.7 553.4 888.5 548.2C885.3 543 883.7 537.2 883.7 530.8C883.7 517.4 889.2 506.2 900.2 497.2C911.4 488.2 926.6 483.6 945.8 483.4C959 483.4 970.2 485.3 979.4 489.1L974.3 537.4C968.3 526.2 960.8 517.2 951.8 510.4C942.8 503.6 933.9 500.2 925.1 500.2ZM1062.98 640.6C1044.78 640.6 1029.88 633.4 1018.28 619C1006.88 604.6 1001.18 585.7 1001.18 562.3C1001.18 538.1 1007.08 518.8 1018.88 504.4C1030.68 490 1046.28 482.8 1065.68 482.8C1083.68 482.8 1098.48 490 1110.08 504.4C1121.68 518.8 1127.48 537.8 1127.48 561.4C1127.48 585.6 1121.58 604.9 1109.78 619.3C1097.98 633.5 1082.38 640.6 1062.98 640.6ZM1067.18 627.1C1080.78 627.1 1087.58 609.4 1087.58 574C1087.58 552.6 1085.28 534.3 1080.68 519.1C1076.28 503.9 1069.88 496.3 1061.48 496.3C1047.88 496.3 1041.08 514.1 1041.08 549.7C1041.08 571.1 1043.28 589.4 1047.68 604.6C1052.28 619.6 1058.78 627.1 1067.18 627.1ZM1144.14 637C1148.74 625.4 1151.04 610.8 1151.04 593.2V485.8C1151.04 464.8 1148.84 449.5 1144.44 439.9C1158.84 435.9 1173.44 430.3 1188.24 423.1V593.2C1188.24 610.8 1190.54 625.4 1195.14 637H1144.14ZM1238.79 472.6C1231.79 472.6 1225.99 470.3 1221.39 465.7C1216.79 461.1 1214.49 455.4 1214.49 448.6C1214.49 441.8 1216.79 436.1 1221.39 431.5C1225.99 426.7 1231.79 424.3 1238.79 424.3C1245.99 424.3 1251.89 426.7 1256.49 431.5C1261.29 436.1 1263.69 441.8 1263.69 448.6C1263.69 455.4 1261.29 461.1 1256.49 465.7C1251.89 470.3 1245.99 472.6 1238.79 472.6ZM1214.19 637C1218.79 624.2 1221.09 610.2 1221.09 595V544C1221.09 524.2 1218.79 509.5 1214.19 499.9C1230.99 494.7 1245.59 489.1 1257.99 483.1V595C1257.99 610.2 1260.29 624.2 1264.89 637H1214.19ZM1330.1 586.6C1330.1 602.6 1335.1 610.6 1345.1 610.6C1350.7 610.6 1356.9 608 1363.7 602.8C1363.7 613 1359.9 621.8 1352.3 629.2C1344.9 636.6 1335.7 640.3 1324.7 640.3C1315.1 640.3 1307.4 637 1301.6 630.4C1295.8 623.6 1292.9 613.2 1292.9 599.2V496.6H1275.8L1277.3 486.1H1292.9C1292.5 476.1 1292 468 1291.4 461.8C1304 457 1316.9 450.6 1330.1 442.6V486.1H1364.6L1363.1 496.6H1330.1V586.6ZM1435.05 640.6C1416.85 640.6 1401.95 633.4 1390.35 619C1378.95 604.6 1373.25 585.7 1373.25 562.3C1373.25 538.1 1379.15 518.8 1390.95 504.4C1402.75 490 1418.35 482.8 1437.75 482.8C1455.75 482.8 1470.55 490 1482.15 504.4C1493.75 518.8 1499.55 537.8 1499.55 561.4C1499.55 585.6 1493.65 604.9 1481.85 619.3C1470.05 633.5 1454.45 640.6 1435.05 640.6ZM1439.25 627.1C1452.85 627.1 1459.65 609.4 1459.65 574C1459.65 552.6 1457.35 534.3 1452.75 519.1C1448.35 503.9 1441.95 496.3 1433.55 496.3C1419.95 496.3 1413.15 514.1 1413.15 549.7C1413.15 571.1 1415.35 589.4 1419.75 604.6C1424.35 619.6 1430.85 627.1 1439.25 627.1Z" fill="white"/>
<path d="M595.191 867V833.66H614.364L629.508 867H646.605L629.63 830.363C640.132 826.088 645.75 817.54 645.75 805.571C645.75 787.985 633.904 777.727 613.631 777.727H579.559V867H595.191ZM595.191 791.649H613.631C623.523 791.649 629.385 796.656 629.385 805.571C629.385 814.609 623.523 819.86 613.631 819.86H595.191V791.649ZM681.87 868.588C697.624 868.588 708.616 860.65 711.18 847.46H697.38C695.67 853.2 690.297 856.375 682.115 856.375C672.223 856.375 666.605 851.002 665.506 840.377L710.936 840.255V835.736C710.936 816.929 699.456 804.839 681.382 804.839C663.674 804.839 651.339 817.906 651.339 836.835C651.339 855.52 663.918 868.588 681.87 868.588ZM681.504 817.051C690.419 817.051 696.159 822.547 696.159 830.851H665.872C667.338 821.814 672.711 817.051 681.504 817.051ZM740.216 868.588C749.62 868.588 757.802 864.313 760.367 858.085L761.466 867H774.533V830.363C774.533 813.632 764.519 804.839 748.277 804.839C731.912 804.839 721.165 813.387 721.165 826.455H733.866C733.866 820.104 738.751 816.44 747.544 816.44C755.116 816.44 760 819.738 760 827.92V829.264L741.926 830.607C727.637 831.706 719.577 838.667 719.577 849.78C719.577 861.138 727.393 868.588 740.216 868.588ZM745.101 857.352C738.384 857.352 734.721 854.665 734.721 849.17C734.721 844.285 738.262 841.232 747.544 840.377L760.123 839.4V842.575C760.123 851.857 754.261 857.352 745.101 857.352ZM785.629 836.713C785.629 855.887 797.597 868.588 815.915 868.588C831.67 868.588 843.393 858.94 845.225 844.895H830.204C828.616 851.49 823.365 855.154 815.915 855.154C806.39 855.154 800.528 848.071 800.528 836.713C800.528 825.356 806.878 818.15 816.404 818.15C823.487 818.15 828.494 821.692 830.204 828.531H845.103C843.516 813.998 832.28 804.839 815.793 804.839C797.963 804.839 785.629 818.028 785.629 836.713ZM876.832 867V819.127H888.556V806.67H876.832V787.863H861.933V806.67H850.331V819.127H861.933V867H876.832ZM948.32 867V803.739L990.331 867H1005.72V777.727H990.331V840.987L948.443 777.727H932.933V867H948.32ZM1041.23 868.588C1050.64 868.588 1058.82 864.313 1061.38 858.085L1062.48 867H1075.55V830.363C1075.55 813.632 1065.54 804.839 1049.29 804.839C1032.93 804.839 1022.18 813.387 1022.18 826.455H1034.88C1034.88 820.104 1039.77 816.44 1048.56 816.44C1056.13 816.44 1061.02 819.738 1061.02 827.92V829.264L1042.94 830.607C1028.66 831.706 1020.6 838.667 1020.6 849.78C1020.6 861.138 1028.41 868.588 1041.23 868.588ZM1046.12 857.352C1039.4 857.352 1035.74 854.665 1035.74 849.17C1035.74 844.285 1039.28 841.232 1048.56 840.377L1061.14 839.4V842.575C1061.14 851.857 1055.28 857.352 1046.12 857.352ZM1109.87 867V819.127H1121.59V806.67H1109.87V787.863H1094.97V806.67H1083.37V819.127H1094.97V867H1109.87ZM1138.31 794.58C1143.19 794.58 1147.22 790.55 1147.22 785.543C1147.22 780.536 1143.19 776.628 1138.31 776.628C1133.18 776.628 1129.15 780.536 1129.15 785.543C1129.15 790.55 1133.18 794.58 1138.31 794.58ZM1130.86 867H1145.76V806.67H1130.86V867ZM1178.25 867H1192.9L1218.06 806.67H1202.67L1191.68 834.393C1189.12 840.987 1186.92 847.338 1186.06 851.124C1185.33 847.826 1183.25 841.598 1180.69 834.393L1170.19 806.67H1154.31L1178.25 867ZM1250.63 868.588C1266.39 868.588 1277.38 860.65 1279.94 847.46H1266.14C1264.43 853.2 1259.06 856.375 1250.88 856.375C1240.98 856.375 1235.37 851.002 1234.27 840.377L1279.7 840.255V835.736C1279.7 816.929 1268.22 804.839 1250.14 804.839C1232.44 804.839 1220.1 817.906 1220.1 836.835C1220.1 855.52 1232.68 868.588 1250.63 868.588ZM1250.27 817.051C1259.18 817.051 1264.92 822.547 1264.92 830.851H1234.63C1236.1 821.814 1241.47 817.051 1250.27 817.051ZM1326.61 819.616V832.072H1350.92V856.497H1363.37V832.072H1387.68V819.616H1363.37V795.313H1350.92V819.616H1326.61ZM1455.66 867V803.739L1497.67 867H1513.06V777.727H1497.67V840.987L1455.78 777.727H1440.27V867H1455.66ZM1557.61 868.588C1573.37 868.588 1584.36 860.65 1586.92 847.46H1573.12C1571.41 853.2 1566.04 856.375 1557.86 856.375C1547.97 856.375 1542.35 851.002 1541.25 840.377L1586.68 840.255V835.736C1586.68 816.929 1575.2 804.839 1557.12 804.839C1539.42 804.839 1527.08 817.906 1527.08 836.835C1527.08 855.52 1539.66 868.588 1557.61 868.588ZM1557.25 817.051C1566.16 817.051 1571.9 822.547 1571.9 830.851H1541.61C1543.08 821.814 1548.45 817.051 1557.25 817.051ZM1606.36 867L1619.06 847.094L1631.89 867H1648.98L1629.08 837.202L1649.59 806.67H1632.86L1620.04 827.187L1606.73 806.67H1589.39L1610.15 837.446L1589.39 867H1606.36ZM1681.37 867V819.127H1693.1V806.67H1681.37V787.863H1666.48V806.67H1654.87V819.127H1666.48V867H1681.37ZM1708.68 868.465C1714.05 868.465 1718.57 864.069 1718.57 858.818C1718.57 853.444 1714.05 849.048 1708.68 849.048C1703.3 849.048 1698.79 853.444 1698.79 858.818C1698.79 864.069 1703.3 868.465 1708.68 868.465ZM1741.65 794.58C1746.54 794.58 1750.69 790.55 1750.69 785.543C1750.69 780.536 1746.54 776.628 1741.65 776.628C1736.65 776.628 1732.62 780.536 1732.62 785.543C1732.62 790.55 1736.65 794.58 1741.65 794.58ZM1719.79 895.333C1723.7 896.432 1725.9 896.676 1728.71 896.676C1741.78 896.676 1749.1 888.372 1749.1 875.549V806.67H1734.2V873.839C1734.2 879.945 1732.49 882.876 1727.37 882.876C1725.53 882.876 1724.31 882.754 1722.24 882.143L1719.79 895.333ZM1759.86 848.681C1759.86 860.527 1769.38 868.588 1784.4 868.588C1799.3 868.588 1809.68 861.016 1809.68 848.803C1809.68 839.522 1804.55 834.881 1794.42 832.561L1783.55 829.996C1778.42 828.775 1775.73 826.577 1775.73 823.157C1775.73 818.639 1779.15 815.952 1785.01 815.952C1790.75 815.952 1794.17 819.249 1794.3 824.379H1808.46C1808.34 812.655 1799.18 804.839 1785.62 804.839C1771.7 804.839 1761.69 811.922 1761.69 823.768C1761.69 833.416 1766.94 838.545 1777.81 840.987L1788.68 843.552C1794.05 844.773 1795.64 846.972 1795.64 850.025C1795.64 854.421 1791.85 857.23 1784.89 857.23C1778.05 857.23 1774.14 853.933 1774.02 848.681H1759.86Z" fill="white"/>
</svg>
