<svg width="2383" height="1274" viewBox="0 0 2383 1274" fill="none" xmlns="http://www.w3.org/2000/svg">
<rect width="2383" height="1274" fill="#0000FF"/>
<path d="M925.1 500.2C920.9 500.2 917.5 501.3 914.9 503.5C912.5 505.5 911.3 508.3 911.3 511.9C911.3 516.7 913.5 521.1 917.9 525.1C922.3 529.1 930.1 534.4 941.3 541L958.7 551.2C976.5 561.6 985.4 575.2 985.4 592C985.4 605.8 980.4 617.4 970.4 626.8C960.4 636 948.3 640.6 934.1 640.6C921.9 640.6 910.9 637.4 901.1 631C891.3 624.4 883.8 616.1 878.6 606.1L905 584.8C918.4 611.2 932.6 624.4 947.6 624.4C951.8 624.4 955.2 623.2 957.8 620.8C960.6 618.4 962 615 962 610.6C962 605.8 960.3 601.5 956.9 597.7C953.5 593.7 947.7 589.4 939.5 584.8L914.9 571C908.1 567 902.8 563.5 899 560.5C895.2 557.5 891.7 553.4 888.5 548.2C885.3 543 883.7 537.2 883.7 530.8C883.7 517.4 889.2 506.2 900.2 497.2C911.4 488.2 926.6 483.6 945.8 483.4C959 483.4 970.2 485.3 979.4 489.1L974.3 537.4C968.3 526.2 960.8 517.2 951.8 510.4C942.8 503.6 933.9 500.2 925.1 500.2ZM1062.98 640.6C1044.78 640.6 1029.88 633.4 1018.28 619C1006.88 604.6 1001.18 585.7 1001.18 562.3C1001.18 538.1 1007.08 518.8 1018.88 504.4C1030.68 490 1046.28 482.8 1065.68 482.8C1083.68 482.8 1098.48 490 1110.08 504.4C1121.68 518.8 1127.48 537.8 1127.48 561.4C1127.48 585.6 1121.58 604.9 1109.78 619.3C1097.98 633.5 1082.38 640.6 1062.98 640.6ZM1067.18 627.1C1080.78 627.1 1087.58 609.4 1087.58 574C1087.58 552.6 1085.28 534.3 1080.68 519.1C1076.28 503.9 1069.88 496.3 1061.48 496.3C1047.88 496.3 1041.08 514.1 1041.08 549.7C1041.08 571.1 1043.28 589.4 1047.68 604.6C1052.28 619.6 1058.78 627.1 1067.18 627.1ZM1144.14 637C1148.74 625.4 1151.04 610.8 1151.04 593.2V485.8C1151.04 464.8 1148.84 449.5 1144.44 439.9C1158.84 435.9 1173.44 430.3 1188.24 423.1V593.2C1188.24 610.8 1190.54 625.4 1195.14 637H1144.14ZM1238.79 472.6C1231.79 472.6 1225.99 470.3 1221.39 465.7C1216.79 461.1 1214.49 455.4 1214.49 448.6C1214.49 441.8 1216.79 436.1 1221.39 431.5C1225.99 426.7 1231.79 424.3 1238.79 424.3C1245.99 424.3 1251.89 426.7 1256.49 431.5C1261.29 436.1 1263.69 441.8 1263.69 448.6C1263.69 455.4 1261.29 461.1 1256.49 465.7C1251.89 470.3 1245.99 472.6 1238.79 472.6ZM1214.19 637C1218.79 624.2 1221.09 610.2 1221.09 595V544C1221.09 524.2 1218.79 509.5 1214.19 499.9C1230.99 494.7 1245.59 489.1 1257.99 483.1V595C1257.99 610.2 1260.29 624.2 1264.89 637H1214.19ZM1330.1 586.6C1330.1 602.6 1335.1 610.6 1345.1 610.6C1350.7 610.6 1356.9 608 1363.7 602.8C1363.7 613 1359.9 621.8 1352.3 629.2C1344.9 636.6 1335.7 640.3 1324.7 640.3C1315.1 640.3 1307.4 637 1301.6 630.4C1295.8 623.6 1292.9 613.2 1292.9 599.2V496.6H1275.8L1277.3 486.1H1292.9C1292.5 476.1 1292 468 1291.4 461.8C1304 457 1316.9 450.6 1330.1 442.6V486.1H1364.6L1363.1 496.6H1330.1V586.6ZM1435.05 640.6C1416.85 640.6 1401.95 633.4 1390.35 619C1378.95 604.6 1373.25 585.7 1373.25 562.3C1373.25 538.1 1379.15 518.8 1390.95 504.4C1402.75 490 1418.35 482.8 1437.75 482.8C1455.75 482.8 1470.55 490 1482.15 504.4C1493.75 518.8 1499.55 537.8 1499.55 561.4C1499.55 585.6 1493.65 604.9 1481.85 619.3C1470.05 633.5 1454.45 640.6 1435.05 640.6ZM1439.25 627.1C1452.85 627.1 1459.65 609.4 1459.65 574C1459.65 552.6 1457.35 534.3 1452.75 519.1C1448.35 503.9 1441.95 496.3 1433.55 496.3C1419.95 496.3 1413.15 514.1 1413.15 549.7C1413.15 571.1 1415.35 589.4 1419.75 604.6C1424.35 619.6 1430.85 627.1 1439.25 627.1Z" fill="white"/>
<path d="M633.888 835.049L655.26 869H673.09L650.497 833.828C657.092 832.363 662.099 829.31 665.64 824.913C669.06 820.517 670.892 815.021 670.892 808.182C670.892 799.633 668.083 793.039 662.587 788.398C656.969 783.757 649.153 781.315 639.139 781.315H604.089V869H619.721V835.049H633.888ZM619.721 794.748H638.284C643.902 794.748 648.176 795.97 651.107 798.168C654.038 800.488 655.504 803.785 655.504 808.182C655.504 812.578 653.916 815.876 650.985 818.196C648.054 820.517 643.78 821.616 638.284 821.616H619.721V794.748ZM709.184 870.343C715.535 870.343 721.03 868.756 725.915 865.581C730.8 862.405 734.342 858.009 736.662 852.391L724.084 847.628C723.107 850.803 721.275 853.368 718.588 855.2C715.901 857.032 712.848 857.887 709.184 857.887C704.421 857.887 700.513 856.299 697.46 853.124C694.407 849.949 692.575 845.674 692.087 840.179H737.029V835.294C737.029 825.89 734.464 818.318 729.335 812.456C724.206 806.594 717.245 803.663 708.574 803.663C704.177 803.663 700.025 804.518 696.239 806.228C692.331 807.938 689.034 810.502 686.225 813.678C683.538 816.731 681.584 820.272 680.119 824.302C678.653 828.333 678.043 832.607 678.043 837.003C678.043 841.766 678.653 846.163 680.119 850.193C681.584 854.223 683.66 857.765 686.347 860.696C689.156 863.871 692.575 866.191 696.483 867.901C700.391 869.611 704.544 870.343 709.184 870.343ZM708.452 815.998C712.604 815.998 716.023 817.219 718.466 819.662C720.908 822.104 722.13 825.279 722.252 829.187H692.82C693.797 825.035 695.751 821.738 698.437 819.417C701.124 817.219 704.544 815.998 708.452 815.998ZM785.244 862.894C786.343 865.581 788.419 867.412 791.35 868.389C794.281 869.366 798.434 869.611 803.685 869V857.642C801.609 857.887 800.143 857.765 799.288 857.032C798.434 856.421 798.067 855.2 798.067 853.368V825.768C798.067 818.685 795.869 813.189 791.717 809.403C787.442 805.617 781.336 803.663 773.398 803.663C766.803 803.663 761.063 805.373 756.301 808.793C751.538 812.212 748.362 816.853 746.653 822.593L760.453 825.768C761.308 822.593 762.773 820.15 764.727 818.685C766.681 817.219 769.368 816.364 772.787 816.364C776.451 816.364 779.138 817.219 780.97 818.929C782.802 820.639 783.779 823.081 783.779 826.256V827.356L766.071 831.019C758.743 832.607 753.247 835.049 749.828 838.347C746.286 841.644 744.577 845.918 744.577 851.17C744.577 856.788 746.531 861.306 750.683 864.848C754.713 868.389 759.842 870.099 766.193 870.099C770.223 870.099 773.886 869.488 777.184 868.267C780.481 867.046 783.168 865.214 785.244 862.894ZM768.391 858.375C765.46 858.375 763.262 857.765 761.552 856.299C759.842 854.956 759.109 853.002 759.109 850.559C759.109 848.239 759.842 846.407 761.552 844.941C763.14 843.598 765.948 842.499 769.978 841.522L783.779 838.591V846.407C783.779 850.071 782.313 852.88 779.382 855.078C776.451 857.276 772.787 858.375 768.391 858.375ZM841.574 816.242C845.116 816.242 848.169 817.341 850.733 819.54C853.176 821.738 855.008 824.669 855.985 828.455L868.319 821.738C866.365 816.242 863.068 811.846 858.305 808.548C853.542 805.373 847.925 803.663 841.574 803.663C836.933 803.663 832.659 804.518 828.751 806.228C824.843 807.938 821.423 810.258 818.615 813.311C815.806 816.364 813.73 819.906 812.264 823.936C810.799 827.966 810.066 832.363 810.066 837.003C810.066 841.766 810.799 846.163 812.264 850.193C813.73 854.223 815.806 857.765 818.615 860.696C821.423 863.871 824.843 866.191 828.751 867.901C832.659 869.611 836.933 870.343 841.574 870.343C848.047 870.343 853.664 868.756 858.549 865.336C863.434 861.917 866.732 857.398 868.564 851.78L855.985 845.43C855.008 849.338 853.176 852.391 850.733 854.467C848.169 856.665 845.116 857.642 841.574 857.642C836.445 857.642 832.293 855.811 829.239 852.147C826.186 848.483 824.721 843.354 824.721 837.003C824.721 830.653 826.186 825.646 829.239 821.86C832.293 818.196 836.445 816.242 841.574 816.242ZM897.575 869.733C899.285 869.733 900.994 869.733 902.826 869.488C904.536 869.366 906.246 869.122 907.711 868.878V856.543C906.246 856.788 905.147 856.91 904.414 856.91C903.559 856.91 902.704 856.91 901.727 856.91C898.308 856.91 895.987 856.421 894.888 855.444C893.667 854.467 893.178 852.88 893.178 850.559V817.341H906.612V804.885H893.178V786.077H878.768V804.885H869.853V817.341H878.768V852.88C878.768 858.864 880.111 863.138 883.042 865.825C885.973 868.512 890.736 869.733 897.575 869.733ZM1001.62 781.315V842.743L960.584 781.315H944.464V869H959.485V804.64L1002.96 869H1016.64V781.315H1001.62ZM1068.61 862.894C1069.71 865.581 1071.79 867.412 1074.72 868.389C1077.65 869.366 1081.8 869.611 1087.05 869V857.642C1084.98 857.887 1083.51 857.765 1082.66 857.032C1081.8 856.421 1081.43 855.2 1081.43 853.368V825.768C1081.43 818.685 1079.24 813.189 1075.08 809.403C1070.81 805.617 1064.7 803.663 1056.77 803.663C1050.17 803.663 1044.43 805.373 1039.67 808.793C1034.9 812.212 1031.73 816.853 1030.02 822.593L1043.82 825.768C1044.67 822.593 1046.14 820.15 1048.09 818.685C1050.05 817.219 1052.74 816.364 1056.15 816.364C1059.82 816.364 1062.5 817.219 1064.34 818.929C1066.17 820.639 1067.15 823.081 1067.15 826.256V827.356L1049.44 831.019C1042.11 832.607 1036.61 835.049 1033.2 838.347C1029.65 841.644 1027.94 845.918 1027.94 851.17C1027.94 856.788 1029.9 861.306 1034.05 864.848C1038.08 868.389 1043.21 870.099 1049.56 870.099C1053.59 870.099 1057.25 869.488 1060.55 868.267C1063.85 867.046 1066.54 865.214 1068.61 862.894ZM1051.76 858.375C1048.83 858.375 1046.63 857.765 1044.92 856.299C1043.21 854.956 1042.48 853.002 1042.48 850.559C1042.48 848.239 1043.21 846.407 1044.92 844.941C1046.51 843.598 1049.32 842.499 1053.35 841.522L1067.15 838.591V846.407C1067.15 850.071 1065.68 852.88 1062.75 855.078C1059.82 857.276 1056.15 858.375 1051.76 858.375ZM1117.61 869.733C1119.32 869.733 1121.03 869.733 1122.87 869.488C1124.57 869.366 1126.28 869.122 1127.75 868.878V856.543C1126.28 856.788 1125.19 856.91 1124.45 856.91C1123.6 856.91 1122.74 856.91 1121.77 856.91C1118.35 856.91 1116.03 856.421 1114.93 855.444C1113.71 854.467 1113.22 852.88 1113.22 850.559V817.341H1126.65V804.885H1113.22V786.077H1098.81V804.885H1089.89V817.341H1098.81V852.88C1098.81 858.864 1100.15 863.138 1103.08 865.825C1106.01 868.512 1110.77 869.733 1117.61 869.733ZM1153.63 796.336V781.315H1138.48V796.336H1153.63ZM1138.73 804.885V869H1153.38V804.885H1138.73ZM1223.01 804.885H1207.86L1192.35 851.414L1176.72 804.885H1161.33L1184.78 869H1199.56L1223.01 804.885ZM1256.48 870.343C1262.83 870.343 1268.32 868.756 1273.21 865.581C1278.09 862.405 1281.64 858.009 1283.96 852.391L1271.38 847.628C1270.4 850.803 1268.57 853.368 1265.88 855.2C1263.2 857.032 1260.14 857.887 1256.48 857.887C1251.72 857.887 1247.81 856.299 1244.75 853.124C1241.7 849.949 1239.87 845.674 1239.38 840.179H1284.32V835.294C1284.32 825.89 1281.76 818.318 1276.63 812.456C1271.5 806.594 1264.54 803.663 1255.87 803.663C1251.47 803.663 1247.32 804.518 1243.53 806.228C1239.63 807.938 1236.33 810.502 1233.52 813.678C1230.83 816.731 1228.88 820.272 1227.41 824.302C1225.95 828.333 1225.34 832.607 1225.34 837.003C1225.34 841.766 1225.95 846.163 1227.41 850.193C1228.88 854.223 1230.95 857.765 1233.64 860.696C1236.45 863.871 1239.87 866.191 1243.78 867.901C1247.69 869.611 1251.84 870.343 1256.48 870.343ZM1255.75 815.998C1259.9 815.998 1263.32 817.219 1265.76 819.662C1268.2 822.104 1269.42 825.279 1269.55 829.187H1240.11C1241.09 825.035 1243.05 821.738 1245.73 819.417C1248.42 817.219 1251.84 815.998 1255.75 815.998ZM1381.42 820.761H1356.27V795.603H1343.57V820.761H1318.41V833.584H1343.57V858.742H1356.27V833.584H1381.42V820.761ZM1477.71 781.315V842.743L1436.68 781.315H1420.56V869H1435.58V804.64L1479.06 869H1492.73V781.315H1477.71ZM1535.79 870.343C1542.14 870.343 1547.64 868.756 1552.52 865.581C1557.41 862.405 1560.95 858.009 1563.27 852.391L1550.69 847.628C1549.71 850.803 1547.88 853.368 1545.19 855.2C1542.51 857.032 1539.45 857.887 1535.79 857.887C1531.03 857.887 1527.12 856.299 1524.07 853.124C1521.01 849.949 1519.18 845.674 1518.69 840.179H1563.64V835.294C1563.64 825.89 1561.07 818.318 1555.94 812.456C1550.81 806.594 1543.85 803.663 1535.18 803.663C1530.78 803.663 1526.63 804.518 1522.85 806.228C1518.94 807.938 1515.64 810.502 1512.83 813.678C1510.14 816.731 1508.19 820.272 1506.73 824.302C1505.26 828.333 1504.65 832.607 1504.65 837.003C1504.65 841.766 1505.26 846.163 1506.73 850.193C1508.19 854.223 1510.27 857.765 1512.95 860.696C1515.76 863.871 1519.18 866.191 1523.09 867.901C1527 869.611 1531.15 870.343 1535.79 870.343ZM1535.06 815.998C1539.21 815.998 1542.63 817.219 1545.07 819.662C1547.52 822.104 1548.74 825.279 1548.86 829.187H1519.43C1520.4 825.035 1522.36 821.738 1525.04 819.417C1527.73 817.219 1531.15 815.998 1535.06 815.998ZM1626.36 869L1603.65 835.782L1624.65 804.885H1608.66L1595.22 824.913L1582.03 804.885H1565.42L1586.43 835.782L1563.84 869H1579.71L1594.73 846.773L1609.88 869H1626.36ZM1654.17 869.733C1655.88 869.733 1657.59 869.733 1659.43 869.488C1661.14 869.366 1662.85 869.122 1664.31 868.878V856.543C1662.85 856.788 1661.75 856.91 1661.01 856.91C1660.16 856.91 1659.3 856.91 1658.33 856.91C1654.91 856.91 1652.59 856.421 1651.49 855.444C1650.27 854.467 1649.78 852.88 1649.78 850.559V817.341H1663.21V804.885H1649.78V786.077H1635.37V804.885H1626.45V817.341H1635.37V852.88C1635.37 858.864 1636.71 863.138 1639.64 865.825C1642.57 868.512 1647.34 869.733 1654.17 869.733ZM1691.98 869V851.292H1674.27V869H1691.98ZM1719.41 796.336V781.315H1704.26V796.336H1719.41ZM1696.57 878.77C1695.84 878.77 1695.23 878.77 1694.74 878.77C1694.13 878.77 1693.27 878.648 1692.3 878.526V890.982C1693.39 891.227 1694.49 891.349 1695.59 891.349C1696.57 891.349 1697.91 891.349 1699.38 891.349C1705.49 891.349 1710.37 889.883 1713.91 886.83C1717.33 883.899 1719.16 879.625 1719.16 874.007V804.885H1704.51V871.198C1704.51 873.885 1703.9 875.839 1702.68 877.06C1701.45 878.281 1699.38 878.77 1696.57 878.77ZM1757.28 870.343C1764.85 870.343 1771.08 868.389 1776.08 864.359C1781.09 860.451 1783.66 855.322 1783.66 849.094C1783.66 845.918 1782.92 843.11 1781.58 840.667C1780.24 838.347 1778.16 836.393 1775.47 834.805C1773.89 834.072 1772.05 833.34 1770.1 832.607C1768.02 831.874 1764.36 831.019 1759.11 829.798C1756.42 829.31 1754.59 828.821 1753.61 828.577C1752.64 828.333 1751.9 828.21 1751.29 827.966C1749.58 827.356 1748.24 826.623 1747.51 825.768C1746.77 825.035 1746.41 823.936 1746.41 822.593C1746.41 820.517 1747.26 818.807 1749.1 817.586C1750.8 816.364 1753.25 815.632 1756.3 815.632C1759.72 815.632 1763.02 816.486 1765.95 818.074C1768.88 819.662 1771.2 821.86 1773.15 824.669L1783.05 815.754C1780.6 812.09 1777.06 809.159 1772.42 806.961C1767.66 804.762 1762.53 803.663 1757.16 803.663C1749.83 803.663 1743.72 805.617 1739.08 809.403C1734.44 813.189 1732.12 818.074 1732.12 823.936C1732.12 826.989 1732.61 829.554 1733.83 831.752C1734.93 833.95 1736.64 835.904 1738.96 837.37C1740.42 838.347 1742.26 839.202 1744.45 839.934C1746.53 840.667 1749.71 841.4 1753.86 842.255C1756.42 842.865 1758.5 843.354 1760.09 843.598C1761.67 843.964 1762.77 844.209 1763.26 844.331C1765.46 845.064 1767.05 845.796 1768.02 846.773C1768.88 847.75 1769.37 848.972 1769.37 850.437C1769.37 853.002 1768.27 854.956 1766.07 856.299C1763.87 857.765 1761.06 858.375 1757.4 858.375C1753.74 858.375 1750.19 857.52 1746.77 855.566C1743.36 853.612 1740.67 851.17 1738.84 847.995L1727.85 856.788C1730.53 860.94 1734.56 864.237 1739.94 866.68C1745.19 869.122 1750.93 870.343 1757.28 870.343Z" fill="white"/>
</svg>
