<svg width="622" height="218" viewBox="0 0 622 218" fill="none" xmlns="http://www.w3.org/2000/svg">
<path d="M47.1 77.2C42.9 77.2 39.5 78.3 36.9 80.5C34.5 82.5 33.3 85.3 33.3 88.9C33.3 93.7 35.5 98.1 39.9 102.1C44.3 106.1 52.1 111.4 63.3 118L80.7 128.2C98.5 138.6 107.4 152.2 107.4 169C107.4 182.8 102.4 194.4 92.4 203.8C82.4 213 70.3 217.6 56.1 217.6C43.9 217.6 32.9 214.4 23.1 208C13.3 201.4 5.8 193.1 0.6 183.1L27 161.8C40.4 188.2 54.6 201.4 69.6 201.4C73.8 201.4 77.2 200.2 79.8 197.8C82.6 195.4 84 192 84 187.6C84 182.8 82.3 178.5 78.9 174.7C75.5 170.7 69.7 166.4 61.5 161.8L36.9 148C30.1 144 24.8 140.5 21 137.5C17.2 134.5 13.7 130.4 10.5 125.2C7.3 120 5.7 114.2 5.7 107.8C5.7 94.4 11.2 83.2 22.2 74.2C33.4 65.2 48.6 60.6 67.8 60.4C81 60.4 92.2 62.3 101.4 66.1L96.3 114.4C90.3 103.2 82.8 94.2 73.8 87.4C64.8 80.6 55.9 77.2 47.1 77.2ZM184.98 217.6C166.78 217.6 151.88 210.4 140.28 196C128.88 181.6 123.18 162.7 123.18 139.3C123.18 115.1 129.08 95.8 140.88 81.4C152.68 67 168.28 59.8 187.68 59.8C205.68 59.8 220.48 67 232.08 81.4C243.68 95.8 249.48 114.8 249.48 138.4C249.48 162.6 243.58 181.9 231.78 196.3C219.98 210.5 204.38 217.6 184.98 217.6ZM189.18 204.1C202.78 204.1 209.58 186.4 209.58 151C209.58 129.6 207.28 111.3 202.68 96.1C198.28 80.9 191.88 73.3 183.48 73.3C169.88 73.3 163.08 91.1 163.08 126.7C163.08 148.1 165.28 166.4 169.68 181.6C174.28 196.6 180.78 204.1 189.18 204.1ZM266.135 214C270.735 202.4 273.035 187.8 273.035 170.2V62.8C273.035 41.8 270.835 26.5 266.435 16.9C280.835 12.9 295.435 7.29998 310.235 0.0999823V170.2C310.235 187.8 312.535 202.4 317.135 214H266.135ZM360.79 49.6C353.79 49.6 347.99 47.3 343.39 42.7C338.79 38.1 336.49 32.4 336.49 25.6C336.49 18.8 338.79 13.1 343.39 8.49998C347.99 3.69998 353.79 1.29998 360.79 1.29998C367.99 1.29998 373.89 3.69998 378.49 8.49998C383.29 13.1 385.69 18.8 385.69 25.6C385.69 32.4 383.29 38.1 378.49 42.7C373.89 47.3 367.99 49.6 360.79 49.6ZM336.19 214C340.79 201.2 343.09 187.2 343.09 172V121C343.09 101.2 340.79 86.5 336.19 76.9C352.99 71.7 367.59 66.1 379.99 60.1V172C379.99 187.2 382.29 201.2 386.89 214H336.19ZM452.102 163.6C452.102 179.6 457.102 187.6 467.102 187.6C472.702 187.6 478.902 185 485.702 179.8C485.702 190 481.902 198.8 474.302 206.2C466.902 213.6 457.702 217.3 446.702 217.3C437.102 217.3 429.402 214 423.602 207.4C417.802 200.6 414.902 190.2 414.902 176.2V73.6H397.802L399.302 63.1H414.902C414.502 53.1 414.002 45 413.402 38.8C426.002 34 438.902 27.6 452.102 19.6V63.1H486.602L485.102 73.6H452.102V163.6ZM557.051 217.6C538.851 217.6 523.951 210.4 512.351 196C500.951 181.6 495.251 162.7 495.251 139.3C495.251 115.1 501.151 95.8 512.951 81.4C524.751 67 540.351 59.8 559.751 59.8C577.751 59.8 592.551 67 604.151 81.4C615.751 95.8 621.551 114.8 621.551 138.4C621.551 162.6 615.651 181.9 603.851 196.3C592.051 210.5 576.451 217.6 557.051 217.6ZM561.251 204.1C574.851 204.1 581.651 186.4 581.651 151C581.651 129.6 579.351 111.3 574.751 96.1C570.351 80.9 563.951 73.3 555.551 73.3C541.951 73.3 535.151 91.1 535.151 126.7C535.151 148.1 537.351 166.4 541.751 181.6C546.351 196.6 552.851 204.1 561.251 204.1Z" fill="url(#paint0_linear_502_2)"/>
<defs>
<linearGradient id="paint0_linear_502_2" x1="-68" y1="131" x2="767.5" y2="131" gradientUnits="userSpaceOnUse">
<stop stop-color="#0000FF"/>
<stop offset="1" stop-color="#00D1FF"/>
</linearGradient>
</defs>
</svg>
