<svg width="2383" height="1274" viewBox="0 0 2383 1274" fill="none" xmlns="http://www.w3.org/2000/svg">
<g clip-path="url(#clip0_902_17)">
<rect width="2383" height="1274" fill="black"/>
<g filter="url(#filter0_f_902_17)">
<path d="M1794.03 809.057C1794.03 1123.71 1098.51 776.794 878.083 776.794C657.66 776.794 365 1019.59 365 704.937C365 390.288 1573.61 243 1794.03 243C2014.46 243 1794.03 494.407 1794.03 809.057Z" fill="#0000FF" fill-opacity="0.73"/>
</g>
<g filter="url(#filter1_d_902_17)">
<path d="M831.53 426.2C849.53 426.2 868.73 441.5 880.73 463.4L885.83 415.1C878.63 412.1 865.13 409.4 852.23 409.4C812.33 409.7 790.13 431.3 790.13 456.8C790.13 476.9 804.83 487.1 821.33 497L845.93 510.8C862.13 520.1 868.43 527 868.43 536.6C868.43 545.9 862.13 550.4 854.03 550.4C840.23 550.4 825.53 538.4 811.43 510.8L785.03 532.1C794.63 550.7 814.73 566.6 840.53 566.6C868.43 566.6 891.83 546.2 891.83 518C891.83 495.5 876.53 483.8 865.13 477.2L847.73 467C827.33 455 817.73 448.1 817.73 437.9C817.73 430.7 823.13 426.2 831.53 426.2ZM969.41 566.6C1007.81 566.6 1033.91 536 1033.91 487.4C1033.91 439.7 1007.81 408.8 972.11 408.8C933.71 408.8 907.61 439.4 907.61 488.3C907.61 535.4 933.41 566.6 969.41 566.6ZM973.61 553.1C955.61 553.1 947.51 515 947.51 475.7C947.51 442.4 953.21 422.3 967.91 422.3C985.91 422.3 994.01 460.7 994.01 500C994.01 533.9 988.01 553.1 973.61 553.1ZM1050.56 563H1101.56C1095.26 547.1 1094.66 536 1094.66 519.2V349.1C1079.96 356.3 1066.16 361.7 1050.86 365.9C1057.16 379.7 1057.46 394.7 1057.46 411.8V519.2C1057.46 536 1056.86 547.1 1050.56 563ZM1145.22 398.6C1159.92 398.6 1170.12 387.8 1170.12 374.6C1170.12 361.1 1159.92 350.3 1145.22 350.3C1130.82 350.3 1120.92 361.1 1120.92 374.6C1120.92 387.8 1130.82 398.6 1145.22 398.6ZM1120.62 563H1171.32C1165.02 545.6 1164.42 537.2 1164.42 521V409.1C1150.02 416 1135.92 421.1 1120.62 425.9C1127.22 439.7 1127.52 454.7 1127.52 470V521C1127.52 537.2 1126.92 545.6 1120.62 563ZM1236.53 512.6V422.6H1269.53L1271.03 412.1H1236.53V368.6C1224.23 376.1 1211.33 382.7 1197.83 387.8C1198.73 398 1199.03 405.5 1199.33 412.1H1183.73L1182.23 422.6H1199.33V525.2C1199.33 554.3 1212.83 566.3 1231.13 566.3C1253.63 566.3 1270.13 548.9 1270.13 528.8C1263.83 533.6 1258.13 536.6 1251.53 536.6C1236.53 536.6 1236.53 520.1 1236.53 512.6ZM1341.48 566.6C1379.88 566.6 1405.98 536 1405.98 487.4C1405.98 439.7 1379.88 408.8 1344.18 408.8C1305.78 408.8 1279.68 439.4 1279.68 488.3C1279.68 535.4 1305.48 566.6 1341.48 566.6ZM1345.68 553.1C1327.68 553.1 1319.58 515 1319.58 475.7C1319.58 442.4 1325.28 422.3 1339.98 422.3C1357.98 422.3 1366.08 460.7 1366.08 500C1366.08 533.9 1360.08 553.1 1345.68 553.1ZM1506.2 532.7L1518.8 520.1C1568 471.8 1587.8 447.8 1587.8 416.6C1587.8 383.9 1563.5 364.7 1529.6 364.7C1498.7 364.7 1466 383.3 1466 424.4V435.8L1506.5 439.4C1500.8 427.7 1497.8 416 1497.8 406.4C1497.8 389.9 1506.2 378.2 1521.8 378.2C1540.7 378.2 1548.2 398 1548.2 419C1548.2 453.5 1541.3 470 1496.9 523.7L1463.3 563H1585.1L1591.4 516.5C1576.7 528.5 1561.7 531.5 1506.2 532.7Z" fill="white"/>
</g>
<g style="mix-blend-mode:luminosity" filter="url(#filter2_d_902_17)">
<path d="M519.638 831V797.66H538.811L553.955 831H571.052L554.077 794.363C564.58 790.088 570.197 781.54 570.197 769.571C570.197 751.985 558.351 741.727 538.079 741.727H504.006V831H519.638ZM519.638 755.649H538.079C547.971 755.649 553.833 760.656 553.833 769.571C553.833 778.609 547.971 783.86 538.079 783.86H519.638V755.649ZM606.318 832.588C622.072 832.588 633.063 824.65 635.628 811.46H621.828C620.118 817.2 614.744 820.375 606.562 820.375C596.67 820.375 591.052 815.002 589.953 804.377L635.383 804.255V799.736C635.383 780.929 623.904 768.839 605.829 768.839C588.121 768.839 575.787 781.906 575.787 800.835C575.787 819.52 588.365 832.588 606.318 832.588ZM605.951 781.051C614.866 781.051 620.606 786.547 620.606 794.851H590.319C591.785 785.814 597.158 781.051 605.951 781.051ZM664.664 832.588C674.067 832.588 682.25 828.313 684.814 822.085L685.913 831H698.981V794.363C698.981 777.632 688.966 768.839 672.724 768.839C656.359 768.839 645.612 777.387 645.612 790.455H658.313C658.313 784.104 663.198 780.44 671.991 780.44C679.563 780.44 684.448 783.738 684.448 791.92V793.264L666.373 794.607C652.085 795.706 644.025 802.667 644.025 813.78C644.025 825.138 651.841 832.588 664.664 832.588ZM669.549 821.352C662.832 821.352 659.168 818.665 659.168 813.17C659.168 808.285 662.71 805.232 671.991 804.377L684.57 803.4V806.575C684.57 815.857 678.708 821.352 669.549 821.352ZM710.076 800.713C710.076 819.887 722.044 832.588 740.363 832.588C756.117 832.588 767.841 822.94 769.673 808.895H754.651C753.064 815.49 747.812 819.154 740.363 819.154C730.837 819.154 724.975 812.071 724.975 800.713C724.975 789.356 731.326 782.15 740.851 782.15C747.935 782.15 752.942 785.692 754.651 792.531H769.551C767.963 777.998 756.728 768.839 740.241 768.839C722.411 768.839 710.076 782.028 710.076 800.713ZM801.279 831V783.127H813.003V770.67H801.279V751.863H786.38V770.67H774.778V783.127H786.38V831H801.279ZM872.768 831V767.739L914.779 831H930.166V741.727H914.779V804.987L872.89 741.727H857.38V831H872.768ZM965.682 832.588C975.085 832.588 983.268 828.313 985.832 822.085L986.931 831H999.999V794.363C999.999 777.632 989.984 768.839 973.742 768.839C957.377 768.839 946.63 777.387 946.63 790.455H959.331C959.331 784.104 964.216 780.44 973.009 780.44C980.581 780.44 985.466 783.738 985.466 791.92V793.264L967.391 794.607C953.103 795.706 945.043 802.667 945.043 813.78C945.043 825.138 952.859 832.588 965.682 832.588ZM970.567 821.352C963.85 821.352 960.186 818.665 960.186 813.17C960.186 808.285 963.728 805.232 973.009 804.377L985.588 803.4V806.575C985.588 815.857 979.726 821.352 970.567 821.352ZM1034.32 831V783.127H1046.04V770.67H1034.32V751.863H1019.42V770.67H1007.82V783.127H1019.42V831H1034.32ZM1062.75 758.58C1067.64 758.58 1071.67 754.55 1071.67 749.543C1071.67 744.536 1067.64 740.628 1062.75 740.628C1057.62 740.628 1053.59 744.536 1053.59 749.543C1053.59 754.55 1057.62 758.58 1062.75 758.58ZM1055.3 831H1070.2V770.67H1055.3V831ZM1102.69 831H1117.35L1142.51 770.67H1127.12L1116.13 798.393C1113.56 804.987 1111.36 811.338 1110.51 815.124C1109.78 811.826 1107.7 805.598 1105.14 798.393L1094.63 770.67H1078.76L1102.69 831ZM1175.08 832.588C1190.83 832.588 1201.82 824.65 1204.39 811.46H1190.59C1188.88 817.2 1183.51 820.375 1175.32 820.375C1165.43 820.375 1159.81 815.002 1158.71 804.377L1204.15 804.255V799.736C1204.15 780.929 1192.67 768.839 1174.59 768.839C1156.88 768.839 1144.55 781.906 1144.55 800.835C1144.55 819.52 1157.13 832.588 1175.08 832.588ZM1174.71 781.051C1183.63 781.051 1189.37 786.547 1189.37 794.851H1159.08C1160.55 785.814 1165.92 781.051 1174.71 781.051ZM1251.06 783.616V796.072H1275.36V820.497H1287.82V796.072H1312.12V783.616H1287.82V759.313H1275.36V783.616H1251.06ZM1380.11 831V767.739L1422.12 831H1437.51V741.727H1422.12V804.987L1380.23 741.727H1364.72V831H1380.11ZM1482.06 832.588C1497.81 832.588 1508.81 824.65 1511.37 811.46H1497.57C1495.86 817.2 1490.49 820.375 1482.3 820.375C1472.41 820.375 1466.8 815.002 1465.7 804.377L1511.13 804.255V799.736C1511.13 780.929 1499.65 768.839 1481.57 768.839C1463.86 768.839 1451.53 781.906 1451.53 800.835C1451.53 819.52 1464.11 832.588 1482.06 832.588ZM1481.69 781.051C1490.61 781.051 1496.35 786.547 1496.35 794.851H1466.06C1467.53 785.814 1472.9 781.051 1481.69 781.051ZM1530.81 831L1543.51 811.094L1556.33 831H1573.43L1553.53 801.202L1574.04 770.67H1557.31L1544.49 791.187L1531.18 770.67H1513.83L1534.6 801.446L1513.83 831H1530.81ZM1605.82 831V783.127H1617.55V770.67H1605.82V751.863H1590.92V770.67H1579.32V783.127H1590.92V831H1605.82ZM1633.13 832.465C1638.5 832.465 1643.02 828.069 1643.02 822.818C1643.02 817.444 1638.5 813.048 1633.13 813.048C1627.75 813.048 1623.23 817.444 1623.23 822.818C1623.23 828.069 1627.75 832.465 1633.13 832.465ZM1666.1 758.58C1670.99 758.58 1675.14 754.55 1675.14 749.543C1675.14 744.536 1670.99 740.628 1666.1 740.628C1661.09 740.628 1657.06 744.536 1657.06 749.543C1657.06 754.55 1661.09 758.58 1666.1 758.58ZM1644.24 859.333C1648.15 860.432 1650.35 860.676 1653.16 860.676C1666.22 860.676 1673.55 852.372 1673.55 839.549V770.67H1658.65V837.839C1658.65 843.945 1656.94 846.876 1651.81 846.876C1649.98 846.876 1648.76 846.754 1646.68 846.143L1644.24 859.333ZM1684.3 812.681C1684.3 824.527 1693.83 832.588 1708.85 832.588C1723.75 832.588 1734.13 825.016 1734.13 812.803C1734.13 803.522 1729 798.881 1718.86 796.561L1708 793.996C1702.87 792.775 1700.18 790.577 1700.18 787.157C1700.18 782.639 1703.6 779.952 1709.46 779.952C1715.2 779.952 1718.62 783.249 1718.74 788.379H1732.91C1732.79 776.655 1723.63 768.839 1710.07 768.839C1696.15 768.839 1686.14 775.922 1686.14 787.768C1686.14 797.416 1691.39 802.545 1702.26 804.987L1713.13 807.552C1718.5 808.773 1720.09 810.972 1720.09 814.025C1720.09 818.421 1716.3 821.23 1709.34 821.23C1702.5 821.23 1698.59 817.933 1698.47 812.681H1684.3ZM1794.39 755.771V831H1809.41V741.727H1774.85V755.771H1794.39ZM1850.99 786.791C1863.44 786.791 1869.31 793.386 1869.31 802.423C1869.31 812.315 1862.83 818.665 1853.06 818.665C1843.54 818.665 1837.19 812.803 1837.19 802.545H1821.8C1821.8 821.841 1835.35 832.588 1852.82 832.588C1870.89 832.588 1885.18 820.986 1885.18 802.667C1885.18 786.913 1874.56 776.899 1860.88 774.212L1882.62 754.184V741.727H1825.95V755.527H1863.08L1840.12 776.655V786.791H1850.99Z" fill="#FDFCFD" fill-opacity="0.83" shape-rendering="crispEdges"/>
</g>
</g>
<defs>
<filter id="filter0_f_902_17" x="-435" y="-557" width="3127" height="2298" filterUnits="userSpaceOnUse" color-interpolation-filters="sRGB">
<feFlood flood-opacity="0" result="BackgroundImageFix"/>
<feBlend mode="normal" in="SourceGraphic" in2="BackgroundImageFix" result="shape"/>
<feGaussianBlur stdDeviation="400" result="effect1_foregroundBlur_902_17"/>
</filter>
<filter id="filter1_d_902_17" x="775.031" y="343.1" width="826.371" height="237.5" filterUnits="userSpaceOnUse" color-interpolation-filters="sRGB">
<feFlood flood-opacity="0" result="BackgroundImageFix"/>
<feColorMatrix in="SourceAlpha" type="matrix" values="0 0 0 0 0 0 0 0 0 0 0 0 0 0 0 0 0 0 127 0" result="hardAlpha"/>
<feOffset dy="4"/>
<feGaussianBlur stdDeviation="5"/>
<feComposite in2="hardAlpha" operator="out"/>
<feColorMatrix type="matrix" values="0 0 0 0 0.405 0 0 0 0 0.454 0 0 0 0 0.895 0 0 0 0.47 0"/>
<feBlend mode="normal" in2="BackgroundImageFix" result="effect1_dropShadow_902_17"/>
<feBlend mode="normal" in="SourceGraphic" in2="effect1_dropShadow_902_17" result="shape"/>
</filter>
<filter id="filter2_d_902_17" x="494.008" y="734.627" width="1401.17" height="140.049" filterUnits="userSpaceOnUse" color-interpolation-filters="sRGB">
<feFlood flood-opacity="0" result="BackgroundImageFix"/>
<feColorMatrix in="SourceAlpha" type="matrix" values="0 0 0 0 0 0 0 0 0 0 0 0 0 0 0 0 0 0 127 0" result="hardAlpha"/>
<feOffset dy="4"/>
<feGaussianBlur stdDeviation="5"/>
<feComposite in2="hardAlpha" operator="out"/>
<feColorMatrix type="matrix" values="0 0 0 0 0.405 0 0 0 0 0.454 0 0 0 0 0.895 0 0 0 0.47 0"/>
<feBlend mode="normal" in2="BackgroundImageFix" result="effect1_dropShadow_902_17"/>
<feBlend mode="normal" in="SourceGraphic" in2="effect1_dropShadow_902_17" result="shape"/>
</filter>
<clipPath id="clip0_902_17">
<rect width="2383" height="1274" fill="white"/>
</clipPath>
</defs>
</svg>
